# xmcd
#
# Track frame offsets:
#	150
#	11781
#	24651
#	33799
#	46194
#	55587
#	65365
#	75909
#	85601
#	98135
#	110691
#	124760
#	137359
#	151723
#	161577
#	172738
#	182543
#	193064
#	203264
#	214709
#
# Disc length: 3036 seconds
#
# Revision: 2
# Processed by: cddbd v1.5.2PL0 Copyright (c) Steve Scherf et al.
# Submitted via: EasyCDDAExtractor 12.0.4.1
#
DISCID=e60bda14
DTITLE=Jim Reeves - The Very Best Of Jim Reeves
DYEAR=2009
DGENRE=Country
TTITLE0=Welcome To My World
TTITLE1=Distant Drums
TTITLE2=I Won't Forget You
TTITLE3=I Love You Because
TTITLE4=There's A Heartache Following Me
TTITLE5=It Hurts So Much (To See You Go)
TTITLE6=He'll Have To Go
TTITLE7=I Won't Come In While He's There
TTITLE8=Not Until Next Time
TTITLE9=This World Is Not My Hope
TTITLE10=Whispering Hope
TTITLE11=Bimbo
TTITLE12=Guilty
TTITLE13=When Two Worlds Collide
TTITLE14=Moonlight and Roses
TTITLE15=But You Love Me Daddy
TTITLE16=You're The Only Good Thing That Happened To Me
TTITLE17=Is It Really Over
TTITLE18=Adios Amigo
TTITLE19=Have I Told You Lately That I Love You
EXTD=
EXTT0=
EXTT1=
EXTT2=
EXTT3=
EXTT4=
EXTT5=
EXTT6=
EXTT7=
EXTT8=
EXTT9=
EXTT10=
EXTT11=
EXTT12=
EXTT13=
EXTT14=
EXTT15=
EXTT16=
EXTT17=
EXTT18=
EXTT19=
PLAYORDER=
